<?xml version="1.0" encoding="UTF-8"?>
<mxfile host="app.diagrams.net" agent="Mozilla/5.0" version="24.7.8">
  <diagram name="Data Flow Diagram" id="dataflow-main">
    <mxGraphModel dx="1434" dy="795" grid="1" gridSize="10" guides="1" tooltips="1" connect="1" arrows="1" fold="1" page="1" pageScale="1" pageWidth="1654" pageHeight="1169" math="0" shadow="0">
      <root>
        <mxCell id="0" />
        <mxCell id="1" parent="0" />
        
        <!-- Title -->
        <mxCell id="title" value="Roblox 3D Graph Visualization - Data Flow" style="text;html=1;align=center;verticalAlign=middle;fontStyle=1;fontSize=20;" vertex="1" parent="1">
          <mxGeometry x="600" y="20" width="454" height="30" as="geometry" />
        </mxCell>
        
        <!-- Data Generation Pipeline -->
        <mxCell id="pipeline-title" value="Data Generation Pipeline" style="text;html=1;align=center;verticalAlign=middle;fontStyle=1;fontSize=16;" vertex="1" parent="1">
          <mxGeometry x="80" y="70" width="200" height="30" as="geometry" />
        </mxCell>
        
        <mxCell id="csv-data" value="CSV Sources&#xa;(Entity/Relationship Data)" style="shape=document;whiteSpace=wrap;html=1;boundedLbl=1;fillColor=#f5f5f5;strokeColor=#666666;" vertex="1" parent="1">
          <mxGeometry x="80" y="110" width="140" height="80" as="geometry" />
        </mxCell>
        
        <mxCell id="node-script" value="Node.js Script&#xa;generate-data-exports.js" style="rounded=1;whiteSpace=wrap;html=1;fillColor=#dae8fc;strokeColor=#6c8ebf;" vertex="1" parent="1">
          <mxGeometry x="80" y="230" width="140" height="60" as="geometry" />
        </mxCell>
        
        <mxCell id="ts-files" value="TypeScript Files&#xa;(Entity/Relationship&#xa;Definitions)" style="shape=document;whiteSpace=wrap;html=1;boundedLbl=1;fillColor=#f5f5f5;strokeColor=#666666;" vertex="1" parent="1">
          <mxGeometry x="80" y="330" width="140" height="80" as="geometry" />
        </mxCell>
        
        <mxCell id="sqlite-db" value="SQLite Database" style="shape=cylinder3;whiteSpace=wrap;html=1;boundedLbl=1;backgroundOutline=1;size=15;fillColor=#e1d5e7;strokeColor=#9673a6;" vertex="1" parent="1">
          <mxGeometry x="80" y="450" width="140" height="80" as="geometry" />
        </mxCell>
        
        <!-- Runtime Flow -->
        <mxCell id="runtime-title" value="Runtime Data Flow" style="text;html=1;align=center;verticalAlign=middle;fontStyle=1;fontSize=16;" vertex="1" parent="1">
          <mxGeometry x="300" y="70" width="200" height="30" as="geometry" />
        </mxCell>
        
        <mxCell id="user-input" value="User Input&#xa;(GUI Controls)" style="shape=actor;whiteSpace=wrap;html=1;fillColor=#fff2cc;strokeColor=#d6b656;" vertex="1" parent="1">
          <mxGeometry x="350" y="110" width="100" height="80" as="geometry" />
        </mxCell>
        
        <mxCell id="config-gui-client" value="ConfigGUI Client" style="rounded=0;whiteSpace=wrap;html=1;fillColor=#dae8fc;strokeColor=#6c8ebf;" vertex="1" parent="1">
          <mxGeometry x="320" y="230" width="160" height="40" as="geometry" />
        </mxCell>
        
        <mxCell id="remote-event" value="RemoteEvent&#xa;ConfigGUIRemote" style="shape=cylinder3;whiteSpace=wrap;html=1;boundedLbl=1;backgroundOutline=1;size=10;fillColor=#e1d5e7;strokeColor=#9673a6;" vertex="1" parent="1">
          <mxGeometry x="340" y="310" width="120" height="60" as="geometry" />
        </mxCell>
        
        <mxCell id="config-gui-server" value="ConfigGUIServer Service" style="rounded=0;whiteSpace=wrap;html=1;fillColor=#d5e8d4;strokeColor=#82b366;" vertex="1" parent="1">
          <mxGeometry x="320" y="410" width="160" height="40" as="geometry" />
        </mxCell>
        
        <mxCell id="unified-renderer-flow" value="UnifiedDataRenderer" style="rounded=0;whiteSpace=wrap;html=1;fillColor=#fff2cc;strokeColor=#d6b656;" vertex="1" parent="1">
          <mxGeometry x="320" y="490" width="160" height="40" as="geometry" />
        </mxCell>
        
        <!-- Detailed Renderer Flow -->
        <mxCell id="renderer-title" value="UnifiedDataRenderer Components" style="text;html=1;align=center;verticalAlign=middle;fontStyle=1;fontSize=16;" vertex="1" parent="1">
          <mxGeometry x="600" y="70" width="280" height="30" as="geometry" />
        </mxCell>
        
        <mxCell id="data-generator" value="DataGenerator" style="rounded=0;whiteSpace=wrap;html=1;" vertex="1" parent="1">
          <mxGeometry x="600" y="110" width="120" height="40" as="geometry" />
        </mxCell>
        
        <mxCell id="test-data-processor" value="TestDataProcessor" style="rounded=0;whiteSpace=wrap;html=1;" vertex="1" parent="1">
          <mxGeometry x="740" y="110" width="140" height="40" as="geometry" />
        </mxCell>
        
        <mxCell id="position-calculator" value="PositionCalculator" style="rounded=0;whiteSpace=wrap;html=1;" vertex="1" parent="1">
          <mxGeometry x="600" y="170" width="120" height="40" as="geometry" />
        </mxCell>
        
        <mxCell id="property-resolver" value="PropertyResolver" style="rounded=0;whiteSpace=wrap;html=1;" vertex="1" parent="1">
          <mxGeometry x="740" y="170" width="140" height="40" as="geometry" />
        </mxCell>
        
        <mxCell id="lane-manager" value="LaneManager" style="rounded=0;whiteSpace=wrap;html=1;" vertex="1" parent="1">
          <mxGeometry x="600" y="230" width="120" height="40" as="geometry" />
        </mxCell>
        
        <mxCell id="platform-shadow" value="PlatformShadowManager" style="rounded=0;whiteSpace=wrap;html=1;" vertex="1" parent="1">
          <mxGeometry x="740" y="230" width="140" height="40" as="geometry" />
        </mxCell>
        
        <mxCell id="wall-manager" value="WallManager" style="rounded=0;whiteSpace=wrap;html=1;" vertex="1" parent="1">
          <mxGeometry x="600" y="290" width="120" height="40" as="geometry" />
        </mxCell>
        
        <mxCell id="y-shadow" value="YParallelShadowManager" style="rounded=0;whiteSpace=wrap;html=1;" vertex="1" parent="1">
          <mxGeometry x="740" y="290" width="140" height="40" as="geometry" />
        </mxCell>
        
        <mxCell id="node-renderer" value="NodeRenderer" style="rounded=0;whiteSpace=wrap;html=1;" vertex="1" parent="1">
          <mxGeometry x="600" y="350" width="120" height="40" as="geometry" />
        </mxCell>
        
        <mxCell id="update-manager" value="UpdateManager" style="rounded=0;whiteSpace=wrap;html=1;" vertex="1" parent="1">
          <mxGeometry x="740" y="350" width="140" height="40" as="geometry" />
        </mxCell>
        
        <!-- Component Makers -->
        <mxCell id="makers-title" value="Component Makers" style="text;html=1;align=center;verticalAlign=middle;fontStyle=1;fontSize=16;" vertex="1" parent="1">
          <mxGeometry x="600" y="420" width="280" height="30" as="geometry" />
        </mxCell>
        
        <mxCell id="makers-group" value="" style="rounded=1;whiteSpace=wrap;html=1;fillColor=#f5f5f5;strokeColor=#666666;dashed=1;" vertex="1" parent="1">
          <mxGeometry x="590" y="460" width="300" height="120" as="geometry" />
        </mxCell>
        
        <mxCell id="hexagon-maker-flow" value="HexagonMaker" style="rounded=0;whiteSpace=wrap;html=1;" vertex="1" parent="1">
          <mxGeometry x="600" y="470" width="100" height="30" as="geometry" />
        </mxCell>
        
        <mxCell id="label-maker-flow" value="LabelMaker" style="rounded=0;whiteSpace=wrap;html=1;" vertex="1" parent="1">
          <mxGeometry x="710" y="470" width="80" height="30" as="geometry" />
        </mxCell>
        
        <mxCell id="rope-maker-flow" value="RopeMaker" style="rounded=0;whiteSpace=wrap;html=1;" vertex="1" parent="1">
          <mxGeometry x="800" y="470" width="80" height="30" as="geometry" />
        </mxCell>
        
        <mxCell id="platform-maker-flow" value="PlatformMaker" style="rounded=0;whiteSpace=wrap;html=1;" vertex="1" parent="1">
          <mxGeometry x="600" y="510" width="100" height="30" as="geometry" />
        </mxCell>
        
        <mxCell id="origin-maker-flow" value="OriginMaker" style="rounded=0;whiteSpace=wrap;html=1;" vertex="1" parent="1">
          <mxGeometry x="710" y="510" width="80" height="30" as="geometry" />
        </mxCell>
        
        <mxCell id="shadow-maker-flow" value="ShadowMaker" style="rounded=0;whiteSpace=wrap;html=1;" vertex="1" parent="1">
          <mxGeometry x="800" y="510" width="80" height="30" as="geometry" />
        </mxCell>
        
        <!-- 3D Output -->
        <mxCell id="output-title" value="3D Visualization Output" style="text;html=1;align=center;verticalAlign=middle;fontStyle=1;fontSize=16;" vertex="1" parent="1">
          <mxGeometry x="980" y="70" width="200" height="30" as="geometry" />
        </mxCell>
        
        <mxCell id="workspace" value="Roblox Workspace" style="rounded=1;whiteSpace=wrap;html=1;fillColor=#d5e8d4;strokeColor=#82b366;" vertex="1" parent="1">
          <mxGeometry x="1000" y="110" width="160" height="40" as="geometry" />
        </mxCell>
        
        <mxCell id="mystuff" value="MyStuff Folder" style="rounded=0;whiteSpace=wrap;html=1;" vertex="1" parent="1">
          <mxGeometry x="1000" y="170" width="160" height="40" as="geometry" />
        </mxCell>
        
        <mxCell id="graphmaker" value="GraphMaker Folder" style="rounded=0;whiteSpace=wrap;html=1;" vertex="1" parent="1">
          <mxGeometry x="1000" y="230" width="160" height="40" as="geometry" />
        </mxCell>
        
        <mxCell id="nodes-folder" value="Nodes (Hexagons)" style="rounded=0;whiteSpace=wrap;html=1;" vertex="1" parent="1">
          <mxGeometry x="1000" y="290" width="160" height="40" as="geometry" />
        </mxCell>
        
        <mxCell id="links-folder" value="Links (Ropes)" style="rounded=0;whiteSpace=wrap;html=1;" vertex="1" parent="1">
          <mxGeometry x="1000" y="340" width="160" height="40" as="geometry" />
        </mxCell>
        
        <mxCell id="platform-block" value="Platform & Shadows" style="rounded=0;whiteSpace=wrap;html=1;" vertex="1" parent="1">
          <mxGeometry x="1000" y="390" width="160" height="40" as="geometry" />
        </mxCell>
        
        <mxCell id="lanes" value="Swim Lanes" style="rounded=0;whiteSpace=wrap;html=1;" vertex="1" parent="1">
          <mxGeometry x="1000" y="440" width="160" height="40" as="geometry" />
        </mxCell>
        
        <mxCell id="walls" value="Vertical Walls" style="rounded=0;whiteSpace=wrap;html=1;" vertex="1" parent="1">
          <mxGeometry x="1000" y="490" width="160" height="40" as="geometry" />
        </mxCell>
        
        <!-- Arrows -->
        <mxCell id="arrow1" style="edgeStyle=orthogonalEdgeStyle;rounded=0;orthogonalLoop=1;jettySize=auto;html=1;strokeWidth=2;" edge="1" parent="1" source="csv-data" target="node-script">
          <mxGeometry relative="1" as="geometry" />
        </mxCell>
        
        <mxCell id="arrow2" style="edgeStyle=orthogonalEdgeStyle;rounded=0;orthogonalLoop=1;jettySize=auto;html=1;strokeWidth=2;" edge="1" parent="1" source="node-script" target="ts-files">
          <mxGeometry relative="1" as="geometry" />
        </mxCell>
        
        <mxCell id="arrow3" style="edgeStyle=orthogonalEdgeStyle;rounded=0;orthogonalLoop=1;jettySize=auto;html=1;strokeWidth=2;" edge="1" parent="1" source="ts-files" target="sqlite-db">
          <mxGeometry relative="1" as="geometry" />
        </mxCell>
        
        <mxCell id="arrow4" style="edgeStyle=orthogonalEdgeStyle;rounded=0;orthogonalLoop=1;jettySize=auto;html=1;strokeWidth=2;strokeColor=#FF0000;" edge="1" parent="1" source="user-input" target="config-gui-client">
          <mxGeometry relative="1" as="geometry" />
        </mxCell>
        
        <mxCell id="arrow5" style="edgeStyle=orthogonalEdgeStyle;rounded=0;orthogonalLoop=1;jettySize=auto;html=1;strokeWidth=2;" edge="1" parent="1" source="config-gui-client" target="remote-event">
          <mxGeometry relative="1" as="geometry" />
        </mxCell>
        
        <mxCell id="arrow6" style="edgeStyle=orthogonalEdgeStyle;rounded=0;orthogonalLoop=1;jettySize=auto;html=1;strokeWidth=2;" edge="1" parent="1" source="remote-event" target="config-gui-server">
          <mxGeometry relative="1" as="geometry" />
        </mxCell>
        
        <mxCell id="arrow7" style="edgeStyle=orthogonalEdgeStyle;rounded=0;orthogonalLoop=1;jettySize=auto;html=1;strokeWidth=2;" edge="1" parent="1" source="config-gui-server" target="unified-renderer-flow">
          <mxGeometry relative="1" as="geometry" />
        </mxCell>
        
        <mxCell id="arrow8" style="edgeStyle=orthogonalEdgeStyle;rounded=0;orthogonalLoop=1;jettySize=auto;html=1;strokeWidth=2;" edge="1" parent="1" source="unified-renderer-flow" target="data-generator">
          <mxGeometry relative="1" as="geometry" />
        </mxCell>
        
        <mxCell id="arrow9" style="edgeStyle=orthogonalEdgeStyle;rounded=0;orthogonalLoop=1;jettySize=auto;html=1;strokeWidth=1;dashed=1;" edge="1" parent="1" source="sqlite-db" target="test-data-processor">
          <mxGeometry relative="1" as="geometry">
            <Array as="points">
              <mxPoint x="260" y="490" />
              <mxPoint x="260" y="90" />
              <mxPoint x="810" y="90" />
            </Array>
          </mxGeometry>
        </mxCell>
        
        <mxCell id="arrow10" style="edgeStyle=orthogonalEdgeStyle;rounded=0;orthogonalLoop=1;jettySize=auto;html=1;strokeWidth=2;strokeColor=#0000FF;" edge="1" parent="1" source="makers-group" target="workspace">
          <mxGeometry relative="1" as="geometry">
            <Array as="points">
              <mxPoint x="950" y="520" />
              <mxPoint x="950" y="130" />
            </Array>
          </mxGeometry>
        </mxCell>
        
        <!-- Legend -->
        <mxCell id="legend" value="Legend" style="swimlane;horizontal=1;startSize=25;" vertex="1" parent="1">
          <mxGeometry x="1250" y="110" width="180" height="160" as="geometry" />
        </mxCell>
        
        <mxCell id="legend-user" value="" style="edgeStyle=orthogonalEdgeStyle;rounded=0;orthogonalLoop=1;jettySize=auto;html=1;strokeWidth=2;strokeColor=#FF0000;endArrow=classic;" edge="1" parent="legend">
          <mxGeometry x="10" y="35" width="50" height="20" as="geometry">
            <mxPoint x="10" y="45" as="sourcePoint" />
            <mxPoint x="60" y="45" as="targetPoint" />
          </mxGeometry>
        </mxCell>
        
        <mxCell id="legend-user-text" value="User Action" style="text;html=1;" vertex="1" parent="legend">
          <mxGeometry x="70" y="35" width="100" height="20" as="geometry" />
        </mxCell>
        
        <mxCell id="legend-process" value="" style="edgeStyle=orthogonalEdgeStyle;rounded=0;orthogonalLoop=1;jettySize=auto;html=1;strokeWidth=2;strokeColor=#000000;endArrow=classic;" edge="1" parent="legend">
          <mxGeometry x="10" y="65" width="50" height="20" as="geometry">
            <mxPoint x="10" y="75" as="sourcePoint" />
            <mxPoint x="60" y="75" as="targetPoint" />
          </mxGeometry>
        </mxCell>
        
        <mxCell id="legend-process-text" value="Process Flow" style="text;html=1;" vertex="1" parent="legend">
          <mxGeometry x="70" y="65" width="100" height="20" as="geometry" />
        </mxCell>
        
        <mxCell id="legend-output" value="" style="edgeStyle=orthogonalEdgeStyle;rounded=0;orthogonalLoop=1;jettySize=auto;html=1;strokeWidth=2;strokeColor=#0000FF;endArrow=classic;" edge="1" parent="legend">
          <mxGeometry x="10" y="95" width="50" height="20" as="geometry">
            <mxPoint x="10" y="105" as="sourcePoint" />
            <mxPoint x="60" y="105" as="targetPoint" />
          </mxGeometry>
        </mxCell>
        
        <mxCell id="legend-output-text" value="Output" style="text;html=1;" vertex="1" parent="legend">
          <mxGeometry x="70" y="95" width="100" height="20" as="geometry" />
        </mxCell>
        
        <mxCell id="legend-data" value="" style="edgeStyle=orthogonalEdgeStyle;rounded=0;orthogonalLoop=1;jettySize=auto;html=1;strokeWidth=1;strokeColor=#000000;endArrow=classic;dashed=1;" edge="1" parent="legend">
          <mxGeometry x="10" y="125" width="50" height="20" as="geometry">
            <mxPoint x="10" y="135" as="sourcePoint" />
            <mxPoint x="60" y="135" as="targetPoint" />
          </mxGeometry>
        </mxCell>
        
        <mxCell id="legend-data-text" value="Data Load" style="text;html=1;" vertex="1" parent="legend">
          <mxGeometry x="70" y="125" width="100" height="20" as="geometry" />
        </mxCell>
        
      </root>
    </mxGraphModel>
  </diagram>
</mxfile>